<svg xmlns="http://www.w3.org/2000/svg" xmlns:xlink="http://www.w3.org/1999/xlink" version="1.1" id="Layer_1" x="0px" y="0px" width="100px" height="100px" viewBox="5.0 -10.0 100.0 135.0" enable-background="new 0 0 100 100" xml:space="preserve">
<g>
	<path d="M21.603,50.173h56.795V19.949H21.603V50.173z M53.973,27.368c0.229-0.273,0.469-0.545,0.728-0.806   c0.258-0.257,0.528-0.495,0.803-0.725c0.037-0.03,0.071-0.067,0.108-0.099c0.285-0.231,0.58-0.448,0.88-0.649   c0.103-0.07,0.21-0.127,0.314-0.192c0.201-0.128,0.402-0.257,0.61-0.368c0.126-0.07,0.255-0.129,0.384-0.194   c0.189-0.096,0.381-0.193,0.573-0.277c0.141-0.062,0.28-0.112,0.422-0.168c0.188-0.073,0.378-0.147,0.568-0.214   c0.146-0.047,0.294-0.088,0.443-0.133c0.189-0.054,0.38-0.107,0.571-0.156c0.15-0.035,0.303-0.064,0.455-0.093   c0.19-0.041,0.383-0.075,0.576-0.104c0.154-0.021,0.309-0.042,0.462-0.061c0.194-0.019,0.39-0.035,0.582-0.05   c0.156-0.008,0.309-0.015,0.465-0.018c0.09-0.001,0.18-0.014,0.272-0.014c0.091,0,0.182,0.014,0.271,0.017   c0.202,0.002,0.404,0.012,0.604,0.029c0.172,0.01,0.343,0.025,0.515,0.045c0.199,0.023,0.4,0.052,0.598,0.085   c0.171,0.028,0.34,0.059,0.508,0.094c0.2,0.042,0.396,0.094,0.594,0.146c0.166,0.044,0.33,0.085,0.493,0.14   c0.199,0.061,0.396,0.131,0.59,0.204c0.159,0.061,0.316,0.117,0.474,0.181c0.197,0.083,0.392,0.177,0.586,0.271   c0.147,0.073,0.297,0.142,0.444,0.221c0.198,0.105,0.394,0.224,0.588,0.345c0.132,0.08,0.27,0.158,0.4,0.245   c0.212,0.142,0.416,0.299,0.622,0.456c0.105,0.084,0.214,0.157,0.318,0.24c0.305,0.249,0.601,0.517,0.883,0.801   c1.272,1.27,2.188,2.761,2.769,4.344c0.252,0.684,0.441,1.381,0.564,2.089c0.642,3.714-0.464,7.675-3.332,10.544   c-0.263,0.262-0.535,0.506-0.816,0.739c-0.056,0.046-0.112,0.096-0.17,0.142c-0.271,0.217-0.549,0.422-0.834,0.614   c-0.062,0.04-0.125,0.079-0.186,0.116c-0.259,0.167-0.521,0.321-0.788,0.466c-0.051,0.026-0.101,0.058-0.154,0.085   c-0.285,0.148-0.576,0.282-0.872,0.404c-0.1,0.042-0.201,0.084-0.303,0.124c-0.28,0.106-0.563,0.21-0.852,0.296   c-0.113,0.035-0.229,0.063-0.347,0.097c-0.198,0.052-0.4,0.103-0.602,0.147c-0.136,0.028-0.271,0.059-0.409,0.086   c-0.259,0.045-0.518,0.081-0.779,0.112c-0.168,0.017-0.335,0.033-0.505,0.044c-0.15,0.012-0.299,0.016-0.447,0.022   c-0.143,0.005-0.284,0.021-0.425,0.021c-0.147,0-0.29-0.016-0.436-0.022c-0.115-0.005-0.231-0.006-0.347-0.016   c-0.144-0.008-0.289-0.023-0.433-0.035c-0.281-0.031-0.562-0.066-0.84-0.111v-0.002c-0.428-0.074-0.853-0.165-1.271-0.288   c-0.03-0.006-0.063-0.011-0.092-0.021c-0.008-0.002-0.013-0.004-0.021-0.006c-0.238-0.071-0.471-0.16-0.704-0.247   c-1.585-0.583-3.076-1.495-4.348-2.769C50.271,39.112,50.032,32.086,53.973,27.368z M35.542,23.092   c0.357-0.034,0.717-0.054,1.081-0.054c0.366,0,0.726,0.021,1.081,0.054c6.124,0.547,10.926,5.688,10.926,11.953   c0,1.801-0.397,3.505-1.109,5.039c-0.304,0.656-0.667,1.283-1.081,1.868c-2.172,3.083-5.757,5.1-9.817,5.1   c-4.057,0-7.643-2.014-9.816-5.098c-0.413-0.587-0.776-1.214-1.08-1.87c-0.71-1.534-1.109-3.238-1.109-5.039   C24.618,28.78,29.417,23.639,35.542,23.092z"/>
	<rect x="59.985" y="52.768" width="18.412" height="42.529"/>
	<path d="M21.603,4.702v12.653h56.795V4.702H21.603z M31.13,14.432h-6.014V9.253h6.014V14.432z M59.365,14.432h-6.015V9.253h6.015   V14.432z M67.354,14.432h-6.014V9.253h6.014V14.432z M75.343,14.432H69.33V9.253h6.013V14.432z"/>
	<rect x="41.054" y="52.768" width="17.895" height="42.529"/>
	<rect x="21.603" y="52.768" width="18.412" height="42.529"/>
	<path d="M39.006,30.505l-1.02-5.812c-0.447-0.06-0.9-0.1-1.364-0.1c-0.462,0-0.916,0.043-1.364,0.102l-1.019,5.81   c0.714-0.376,1.522-0.591,2.382-0.591S38.294,30.129,39.006,30.505z"/>
	<path d="M33.879,39.372c-1.379-0.875-2.31-2.394-2.378-4.127l-4.53,3.794c0.353,0.849,0.817,1.635,1.37,2.354L33.879,39.372z"/>
	<path d="M39.372,39.372l5.535,2.021c0.553-0.719,1.019-1.505,1.37-2.354l-4.532-3.794C41.678,36.976,40.748,38.492,39.372,39.372z"/>
	<path d="M35.611,38.741c0.322,0.087,0.662,0.139,1.012,0.139c0.353,0,0.692-0.052,1.014-0.139c1.625-0.446,2.822-1.928,2.822-3.696   c0-0.346-0.049-0.673-0.134-0.99c-0.177-0.664-0.525-1.261-0.998-1.73c-0.694-0.686-1.648-1.113-2.704-1.113   c-0.066,0-0.131,0.006-0.2,0.009c-0.064,0.004-0.129,0.004-0.19,0.009c-0.054,0.008-0.106,0.017-0.158,0.026   c-0.075,0.008-0.151,0.018-0.224,0.032c-0.056,0.011-0.109,0.029-0.166,0.042c-0.068,0.018-0.135,0.03-0.202,0.053   c-0.07,0.022-0.135,0.048-0.202,0.075c-0.052,0.017-0.102,0.032-0.151,0.054c-0.044,0.018-0.085,0.04-0.129,0.062   c-0.068,0.031-0.138,0.064-0.207,0.098c-0.01,0.007-0.019,0.015-0.031,0.021c-0.309,0.17-0.593,0.385-0.842,0.631   c-0.438,0.438-0.772,0.975-0.961,1.581c-0.004,0.016-0.006,0.033-0.01,0.048c-0.011,0.033-0.018,0.068-0.027,0.102   c-0.085,0.316-0.134,0.647-0.134,0.99C32.788,36.813,33.986,38.294,35.611,38.741z M34.124,33.812   c0.055-0.111,0.109-0.226,0.181-0.328c0.501-0.745,1.354-1.236,2.318-1.236c0.966,0,1.819,0.491,2.322,1.236   c0.069,0.102,0.124,0.216,0.179,0.328c0.184,0.375,0.297,0.79,0.297,1.232c0,1.479-1.158,2.681-2.613,2.78   c-0.061,0.002-0.122,0.02-0.185,0.02c-0.062,0-0.122-0.018-0.184-0.02c-1.456-0.099-2.613-1.301-2.613-2.78   C33.826,34.602,33.94,34.187,34.124,33.812z"/>
	<path d="M59.562,31.427c0.597-0.6,1.314-1.03,2.098-1.272l-4.826-3.384c-0.357,0.276-0.707,0.568-1.033,0.895   c-0.327,0.327-0.62,0.674-0.895,1.033l3.387,4.826C58.533,32.74,58.965,32.022,59.562,31.427z"/>
	<path d="M59.709,38.818l-0.52,5.895c0.836,0.348,1.72,0.572,2.63,0.691l2.485-5.343c-0.361,0.081-0.734,0.128-1.115,0.128   C61.885,40.188,60.66,39.697,59.709,38.818z"/>
	<path d="M68.19,36.17l5.349-2.487c-0.118-0.914-0.343-1.794-0.69-2.63l-5.898,0.521C68.132,32.847,68.545,34.575,68.19,36.17z"/>
	<path d="M61.406,31.658c-0.333,0.175-0.646,0.404-0.927,0.685c-0.748,0.747-1.121,1.721-1.126,2.699   c-0.001,0.668,0.174,1.333,0.52,1.929c0.163,0.282,0.362,0.553,0.604,0.794c0.143,0.143,0.294,0.267,0.45,0.381   c0.029,0.019,0.055,0.042,0.081,0.061c0.155,0.106,0.315,0.201,0.48,0.282c0.024,0.014,0.053,0.024,0.08,0.037   c0.354,0.167,0.726,0.273,1.102,0.324c0.018,0.004,0.035,0.006,0.052,0.009c0.156,0.018,0.311,0.033,0.468,0.033   c0.031,0,0.063-0.006,0.095-0.006c0.032,0,0.065-0.007,0.097-0.009c0.159-0.006,0.317-0.026,0.474-0.053   c0.047-0.008,0.093-0.018,0.14-0.025c0.143-0.032,0.287-0.073,0.427-0.122c0.046-0.018,0.093-0.029,0.139-0.047   c0.181-0.068,0.357-0.15,0.525-0.247c0.293-0.164,0.568-0.367,0.817-0.617c0.248-0.249,0.451-0.524,0.617-0.816   c0.835-1.462,0.631-3.357-0.619-4.606c-0.118-0.12-0.245-0.225-0.375-0.326c-0.135-0.103-0.275-0.198-0.419-0.28   c-0.149-0.087-0.302-0.162-0.458-0.226c-0.026-0.011-0.053-0.018-0.079-0.027c-0.132-0.053-0.266-0.101-0.4-0.137   c-0.009-0.002-0.016-0.002-0.023-0.004c-0.313-0.081-0.635-0.123-0.955-0.123h-0.015c-0.485,0.002-0.972,0.094-1.429,0.279   c-0.031,0.012-0.061,0.03-0.093,0.043C61.571,31.579,61.488,31.616,61.406,31.658z M63.19,32.257c0.184,0,0.362,0.019,0.538,0.05   c0.123,0.025,0.239,0.07,0.358,0.108c0.401,0.136,0.771,0.351,1.08,0.659c1.046,1.047,1.078,2.717,0.118,3.816   c-0.042,0.046-0.073,0.099-0.116,0.143c-0.046,0.044-0.099,0.075-0.146,0.119c-0.51,0.446-1.149,0.701-1.834,0.701   c-0.748,0-1.451-0.292-1.979-0.82c-0.308-0.31-0.525-0.682-0.66-1.082c-0.04-0.121-0.083-0.236-0.105-0.359   c-0.035-0.173-0.054-0.354-0.054-0.539c0-0.745,0.292-1.449,0.82-1.976C61.739,32.548,62.441,32.257,63.19,32.257z"/>
</g>
<text x="0.0" y="117.5" font-size="5.0" font-weight="bold" font-family="Helvetica Neue, Helvetica, Arial-Unicode, Arial, Sans-serif" fill="#000000">Created by Matthew Hawdon</text><text x="0.0" y="122.5" font-size="5.0" font-weight="bold" font-family="Helvetica Neue, Helvetica, Arial-Unicode, Arial, Sans-serif" fill="#000000">from the Noun Project</text></svg>